<svg xmlns="http://www.w3.org/2000/svg" viewBox="0 0 2008 2008"><defs><style>.cls-1{fill:#0d193b;}.cls-2{fill:#a0ccff;}.cls-3{fill:#fcee21;}.cls-4{fill:#f4c219;}</style></defs><title>bob</title><g id="Livello_2" data-name="Livello 2"><g id="Livello_3" data-name="Livello 3"><rect class="cls-1" width="2008" height="2008"/></g><g id="logo"><path class="cls-2" d="M1249.58,1522.82c-119.37,28.37-273.49,40-416,5.49l0,.19s-35,92-67,118-279-125-293-174c-17.06-59.71,76.86-496,136-562l863.16-3.3c59.14,66,153.06,502.29,136,562-14,49-261,200-293,174s-66.16-120.7-66.16-120.7Z"/><path class="cls-1" d="M1245.59,1508.36c-102.53,24.26-209.5,32.56-314.65,21.55a722.75,722.75,0,0,1-93.41-16.07c-7.69-1.84-16.49,2.38-18.45,10.48-.78,3.22-2.5,6.44-3.74,9.49-.67,1.62-1.34,3.25-2,4.87-.75,1.82-.76,1.77.09-.19-.53,1.23-1,2.45-1.57,3.67q-3,7.06-6.22,14c-9.78,21.46-20.44,42.92-34,62.25-.72,1-1.46,2-2.19,3-2.18,3,.67-.71-1,1.29s-3.36,4.12-5.16,6.08c-1.42,1.54-2.89,3-4.43,4.47-.83.77-1.76,1.47-2.57,2.26-1.42,1.4,3.7-2.62,1.6-1.29-2.85,1.81,2.48-.58,1.2-.39a14.25,14.25,0,0,0-2.64.69c-2,.7,3.07-.25,2.3-.29-.51,0-1.05.12-1.57.13-1.14,0-2.28.06-3.42,0s-2.15-.15-3.22-.23c-4.24-.32,3.61.71-.69-.1-3-.56-5.9-1.17-8.83-1.92a201.75,201.75,0,0,1-20.34-6.59c-3.92-1.47-7.79-3.07-11.67-4.64-.82-.33,2.76,1.19,0,0l-2.74-1.19q-3.27-1.44-6.53-2.92c-8.78-4-17.44-8.24-26-12.64-19-9.78-37.7-20.35-56-31.46q-27.84-16.9-54.55-35.6-12.29-8.64-24.22-17.75l-1.29-1s2.23,1.73.91.69l-2.92-2.29q-2.66-2.08-5.28-4.22-5.2-4.21-10.28-8.57c-5.88-5.06-11.63-10.29-17.07-15.83-2.37-2.4-4.68-4.86-6.89-7.41-1-1.11-1.87-2.25-2.82-3.38-1.73-2,1.23,1.76.76,1s-.86-1.15-1.27-1.72a55.57,55.57,0,0,1-4-6.24c-.26-.5-.48-1-.76-1.51-1.17-2,.77,1.35.77,1.92a12.66,12.66,0,0,0-.91-2.68c-.43-1.51-.64-3-.94-4.57-.46-2.23.46,4.66.13.87-.09-1.07-.2-2.14-.28-3.22-.79-11-.19-22.13.61-33.12.53-7.4,1.24-14.79,2-22.17q.65-5.89,1.37-11.78c.25-2,.5-4.08.77-6.13.12-1,.25-1.92.37-2.88.54-4.14-.21,1.47.12-.89,5.61-40.38,12.84-80.51,21-120.45q13.74-67.41,31-134c10.58-40.8,22.09-81.43,35.8-121.3,2.9-8.43,5.9-16.81,9.06-25.14q2.24-5.89,4.59-11.74,1.08-2.7,2.19-5.38c.34-.81.68-1.61,1-2.42-1,2.42-.81,1.91,0,0,5.12-11.81,10.58-23.59,17.46-34.49,1.24-2,2.56-3.88,3.9-5.79,2.45-3.48-1.78,2,0,0,.71-.83,1.39-1.68,2.12-2.5L609.5,925.5l23.12-.09,62.9-.24,92.57-.35,113.42-.44,124.25-.47,125.43-.48,116.44-.45,98.87-.37,71.09-.28c11.18,0,22.48.4,33.64-.12.47,0,1,0,1.43,0l-10.61-4.39c.67.75,1.31,1.54,2,2.31,2.12,2.49-2.4-3.39.11.18,1.39,2,2.77,4,4.06,6,3.17,5,6,10.29,8.68,15.62,3.14,6.24,6,12.6,8.78,19,.86,2,.58,1.4-.17-.42.39,1,.79,1.89,1.18,2.83q1.2,2.89,2.37,5.81,2.27,5.66,4.41,11.35c14.22,37.54,25.74,76.11,36.38,114.79,12.13,44.15,22.89,88.67,32.59,133.4,9.1,42,17.31,84.19,23.92,126.64q1.07,6.8,2.05,13.6.48,3.29.95,6.59l.42,3c.08.57.67,4.93.33,2.43s.11.83.19,1.41c.14,1.12.29,2.24.43,3.36.28,2.19.56,4.38.82,6.57q.7,5.84,1.34,11.69c1.43,13.36,2.61,26.78,2.81,40.21.07,4.83,0,9.67-.35,14.49-.08,1-.2,2-.28,2.93-.26,3.27.84-4.41.09-.72-.32,1.57-.64,3.12-1.05,4.68-.11.4-.3.78-.4,1.18-.57,2.19.46-1.58.85-2-.65.6-1.07,2.21-1.51,3a70.5,70.5,0,0,1-4.13,6.31c-.94,1.33-.28,1.49-.14.22s1.17-1.43.17-.26c-.21.26-.41.52-.62.77-1,1.24-2.07,2.47-3.14,3.68-2.19,2.47-4.47,4.86-6.79,7.2-5.65,5.67-11.6,11-17.69,16.22q-5,4.21-10,8.29-2.64,2.13-5.33,4.23c-.69.55-3.8,3-.76.62l-3,2.31c-16.64,12.68-33.87,24.58-51.43,36-35,22.71-71.44,43.86-109.53,61-2,.9-4,1.78-6,2.66-.9.39-1.82.77-2.72,1.17,3-1.32.7-.3-.88.35-3.68,1.51-7.38,3-11.11,4.34a187,187,0,0,1-20.41,6.4c-2.75.67-5.54,1.1-8.31,1.68-2.18.46,4.21-.39,1.36-.18-.56,0-1.11.12-1.67.17-1.21.1-2.43.17-3.65.17-1,0-2.05-.11-3.07-.11-2.39,0,4.47,1.13.65,0-.89-.26-3.78-1.34-.7-.06s.45.16-.3-.39c5.53,4.07,0-.23-1.43-1.59-1.77-1.72-3.43-3.53-5-5.4-.85-1-1.67-2-2.51-3-1.8-2.19,1.18,1.68-.51-.68s-3.36-4.66-5-7.06a304.13,304.13,0,0,1-17.74-30.85c-5.29-10.38-10.2-21-14.84-31.66-.56-1.27-1.11-2.56-1.66-3.84-.23-.53-.45-1.07-.68-1.6,0,.08,1.06,2.53.41,1-1-2.29-1.91-4.59-2.85-6.88q-2.24-5.49-4.38-11c-1.23-3.15-2.45-6.31-3.6-9.5-2.75-7.61-10.2-12.74-18.45-10.47-8.06,2.21-12.35,10.54-10.47,18.45l.07.32c1.88,7.88,10.84,12.57,18.45,10.47,8.06-2.21,12.36-10.54,10.48-18.45l-.08-.32-28.92,8A614.19,614.19,0,0,0,1266.6,1599c8.4,16.29,17.76,32.39,29.83,46.28,8.09,9.3,16.53,15.32,29,15.87,22.11,1,45.45-10,65.15-18.58,29.1-12.69,57.06-28,84.27-44.35a886,886,0,0,0,82.23-55.23c20.54-15.67,41.57-32.1,57.13-53,9.9-13.3,11.58-28.12,11.44-44.27-.19-22.33-2.92-44.67-5.87-66.77-8.82-66-22-131.4-37-196.22-15.07-65-31.9-130-54.13-192.91-8.28-23.45-17.19-47.06-29-69a136.2,136.2,0,0,0-14.9-22.52c-3.77-4.54-8.84-6.1-14.38-6.14-22.44-.19-44.91.17-67.35.26l-137.88.52-178.21.68-184.91.71L740.77,895,634,895.41c-7.49,0-15-.06-22.48.08-5.66.11-10.7,1.94-14.48,6.53a137,137,0,0,0-14.93,22.75c-11.8,22.08-20.74,45.79-29,69.36-10.48,29.8-19.58,60.09-28,90.52-18.88,67.87-34.69,136.68-47.75,205.91-5.84,30.93-11,62-15.17,93.19-2.9,21.82-5.56,43.88-5.68,65.91-.1,16.22,1.77,30.9,11.82,44.17,15.93,21,37.18,37.63,58.06,53.47a891.87,891.87,0,0,0,82,54.86c27.16,16.24,55.08,31.52,84.13,44.12,19.57,8.48,43,19.47,64.93,18.14,12.73-.77,21.16-7.37,29.3-16.85,12.21-14.21,21.86-30.48,30.57-47,7.75-14.72,14.76-29.83,21.29-45.13,3.13-7.31,7.58-15.33,9.47-23.14l-18.45,10.47c111,26.66,227.13,27.15,339.68,10.63q42.49-6.23,84.32-16.12c7.89-1.86,12.57-10.84,10.48-18.45C1261.82,1510.77,1253.5,1506.48,1245.59,1508.36Z"/><path class="cls-1" d="M1253.56,1537.28c50.93-12.16,101.69-28.09,148.51-51.83,7.22-3.66,9.3-13.83,5.38-20.52-4.29-7.35-13.27-9.06-20.52-5.38q-7.07,3.59-14.27,6.9c-2.41,1.11-4.82,2.21-7.25,3.28l-4.08,1.77a16.36,16.36,0,0,1-2,.84q-16.71,6.92-33.8,12.86a825.29,825.29,0,0,1-80,23.16c-7.88,1.88-12.57,10.83-10.48,18.45,2.21,8,10.55,12.36,18.45,10.47Z"/><path class="cls-1" d="M679.93,1485.45c46.94,25.87,97.6,44.67,149.63,57.32,7.61,1.85,16.61-2.41,18.45-10.47,1.76-7.73-2.32-16.47-10.48-18.46-50.08-12.18-97.57-29.55-142.46-54.29a15.29,15.29,0,0,0-20.52,5.38c-4,6.88-1.74,16.6,5.38,20.52Z"/><path class="cls-1" d="M949.5,1263c0,63.24-43.6,114.5-98,114.5s-91-50.76-91-114,40.6-112,95-112S949.5,1199.76,949.5,1263Z"/><path class="cls-1" d="M1324.3,1263.3c0,63.24-43.6,114.5-98,114.5s-91-50.76-91-114,40.6-112,95-112S1324.3,1200.06,1324.3,1263.3Z"/></g><g id="helmet"><path class="cls-3" d="M615.5,642.5c3.14-12.23,6.39-23,10-37,15-58,179-278,485-254s340,224,340,224c96,109,90,368,90,368l32,27v46s23,16,21,27,29,21-208,18-555,69-625,85-407-43-426-59,158-93,158-93l11-70,32-18S585.5,669.5,615.5,642.5Z"/><path class="cls-4" d="M634.79,647.82c3.65-14.1,6.84-28.68,11.67-42.43.44-1.25.93-2.47,1.4-3.71,1.49-3.93-2.35,5.14-.11.27,1.33-2.86,2.68-5.7,4.13-8.5,7.65-14.71,17.07-28.41,27-41.62,2.66-3.52-3,3.77-.21.28.7-.88,1.4-1.78,2.11-2.66q2.48-3.11,5-6.16,5.31-6.4,10.86-12.6,11.63-13,24.2-25.07,13.7-13.19,28.38-25.29,3.72-3.07,7.49-6.06c1.19-.95,2.38-1.88,3.58-2.82,2.7-2.12-.58.45-.94.73.87-.67,1.74-1.34,2.62-2q8.29-6.29,16.85-12.22a507.58,507.58,0,0,1,78.42-44.69c3.5-1.6,7-3.13,10.54-4.67.85-.38,3.53-1.47-.5.2l2.88-1.2q2.89-1.19,5.8-2.34,11.46-4.56,23.13-8.54a507.39,507.39,0,0,1,50.16-14.3q13.05-3,26.24-5.33,6.51-1.15,13.05-2.14c2.06-.31,4.12-.59,6.18-.89,3.14-.45-3.15.37,0,0l4.47-.56a545.25,545.25,0,0,1,57.69-3.78,600.25,600.25,0,0,1,61.89,2.47c5.11.47,10.21,1,15.3,1.56q4,.45,8,.95l3,.38c-4-.51,2.27.32,2.46.35q14.52,2.07,28.92,4.85a516,516,0,0,1,52.18,12.9q11.79,3.6,23.38,7.84,5.37,2,10.69,4.09c1.62.64,3.24,1.31,4.86,2,3.37,1.37-.14-.06-.69-.3,1.12.48,2.25,1,3.36,1.45a358.86,358.86,0,0,1,70.82,40.9,21.88,21.88,0,0,1,1.87,1.42c.14.13-3.43-2.71-1.74-1.35,1.2,1,2.41,1.89,3.61,2.86q3.53,2.82,7,5.76,6.4,5.46,12.49,11.27a286.05,286.05,0,0,1,21.25,22.65q2.27,2.68,4.45,5.42c.48.61,3.41,4.38,1,1.22s.58.77,1.16,1.55q3.87,5.18,7.5,10.55,6.87,10.2,12.77,21,4.92,9,9.07,18.45c.28.63.54,1.28.83,1.91,1,2.08-2.31-5.66-.9-2.12.54,1.36,1.1,2.71,1.64,4.07q1.39,3.59,2.67,7.23c2.11,6,3.68,12.14,5.27,18.32,1.79,6.92,7,12,11.41,17.44,2.19,2.68-.35-.48-.65-.87.54.71,1.09,1.43,1.62,2.15q1.42,1.91,2.79,3.84,3.18,4.49,6.14,9.12c3.91,6.12,7.54,12.41,10.94,18.83,3.61,6.82,6.95,13.79,10.06,20.85.31.71,2.41,5.66,1.32,3s1,2.35,1.25,3.08q2.35,5.88,4.55,11.83c5.41,14.73,10,29.75,14,44.91s7.46,30.64,10.41,46.13q2.18,11.42,4,22.88.93,5.82,1.79,11.65c.25,1.68.49,3.37.73,5s1.08,8.2.36,2.55c3.36,26.43,5.89,52.94,7.34,79.55.94,17.22,1.51,34.47,1.54,51.72,0,3.3-.15,6.62-.06,9.92.31,11.85,8.66,17,16.66,23.77l21.19,17.88-5.86-14.14v33.32c0,4.18-.27,8.46,0,12.63.52,8.09,4.48,13.35,10.78,18,3.23,2.36-3.53-3-1-.78,1.46,1.24,3,2.42,4.41,3.69s2.62,2.4,3.86,3.67c.81.82,1.56,1.68,2.35,2.51s1.53,3,.57.6c-1.12-2.73.18.58.63,1.18.87,1.18.83,3.18-.49-1.56.88,3.17,0-2,0-2.2,0,3.6.68-3.72.58-3.09a35.55,35.55,0,0,0-.73,7.28c.07,2.43.71,4.82,1,7.24-1-9-.31-5.47-.57-3.23.43-3.75.55-5,2.13-8-1.25,2.34,4.27-5,2.39-3.1-2.3,2.35,5.12-3.64,2.78-2.1-.43.28-.89.5-1.34.75-2.53,1.37,6.68-2.22,2.34-1-1.87.51-3.69,1.06-5.59,1.46-1.18.24-2.37.45-3.57.65-.71.12-1.43.22-2.14.33-4.26.71,5.3-.62,2.18-.28-3.85.4-7.69.84-11.55,1.15-11.38.91-22.8,1.36-34.21,1.7-41.54,1.23-83.13.89-124.68.45-47.15-.5-94.11.57-141.15,4-93.78,6.77-187.12,19.87-279.73,35.88Q881.64,1098.86,782.49,1121c-8.74,2-17.47,4-26.21,5.92-1.54.35-3.08.69-4.64,1-.89.16-1.82.22-2.69.43,7.34-1.74,3.6-.47,1.45-.23-4.46.49-8.95.75-13.44.92-25.35.91-50.84-1-76.07-3.3-15.53-1.39-31-3.06-46.52-4.89q-12.42-1.49-24.82-3.1l-6.29-.83c-1.1-.15-3.9-.43,1.12.15-.94-.11-1.87-.25-2.81-.38q-6.69-.92-13.37-1.86-49.4-7-98.52-15.77c-27.39-4.89-54.74-10.12-81.87-16.31-9.51-2.18-19-4.45-28.4-7.11-3.36-1-6.71-2-10-3.09-1.22-.41-2.42-.89-3.64-1.32-4.2-1.48,5.46,3,1.32.52a13.15,13.15,0,0,0-1.93-1.1c3.52,1.32,6.24,5.93,7.28,9.38,1.58,5.23.43,8.35-1.33,11.93a16.7,16.7,0,0,1,.94-1.57c1-1.62-4.4,4.78-1.31,1.8,1.2-1.17,2.32-2.38,3.58-3.49.76-.68,1.56-1.31,2.34-2,3.29-2.82-4.27,3-.49.37,4.38-3.1,8.78-6.12,13.34-8.95,23.56-14.67,48.62-27,73.61-39q27.81-13.39,56.07-25.86c7.85-3.46,12.09-10.18,13.4-18.52l6.15-39.1,4.06-25.83-9.2,11.95,27-15.19c7.11-4,13-9.14,14.76-17.41q4.93-23,10.27-45.93C578,809.76,590.94,756.08,608.43,704c2.15-6.42,4.4-12.81,6.81-19.14,1-2.77,2.15-5.52,3.26-8.27,1.85-4.58-1.64,3.66,0,.11.54-1.19,1-2.4,1.6-3.59a118.24,118.24,0,0,1,6.22-12c.76-1.27,4.47-6.4,1.74-2.91s.61-.58,1.62-1.52c7.71-7.11,7.74-21.18,0-28.28a20.42,20.42,0,0,0-28.28,0c-12,11.07-18.27,29.24-24,44-8.12,21-14.64,42.59-20.82,64.21C543.87,781,533,826,522.81,871.17c-2.25,10-4.48,20-6.6,30l9.2-11.95-19.79,11.13c-8.41,4.73-19.11,8.92-21.5,19.4-3.71,16.32-5.25,33.45-7.85,50l-3.06,19.44,9.2-11.95c-35.71,15.54-71.12,32.15-105.44,50.56-10.63,5.7-21.19,11.6-31.33,18.14-8.09,5.22-16.7,10.79-23.2,18-8.39,9.27-12.62,21.41-5.85,33,4.41,7.58,12.81,10.82,20.59,13.63,15.7,5.67,32.35,9.1,48.62,12.68,25.82,5.67,51.8,10.6,77.83,15.2,62,11,124.46,20.26,187.14,26.35,41.85,4.06,84.27,8,125.62-1.42q80.76-18.32,162.17-33.57,58.77-11,117.87-20.19,15.69-2.43,31.39-4.71l15.43-2.19,7.76-1.08,3.89-.53c6.41-.88-4,.52,2.48-.33q32.43-4.32,65-7.89c43.77-4.76,87.69-8.41,131.68-10.24,44.75-1.87,89.47-.76,134.24-.63,32.22.09,64.5.11,96.69-1.44,15-.72,30.86-1.14,45.4-5,10.35-2.78,20-9,22.74-20,1.23-4.9.74-9.12-.21-14-.4-2,.25,7.38.51,3.26,0-.31,0-.62,0-.93.24-1.5-1,6.92-.66,5a51.71,51.71,0,0,0,.82-6.3,30.51,30.51,0,0,0-1.24-8.92c-4.22-14.65-17.75-25.94-29.78-34.37l9.91,17.27c0-15.27.7-30.7,0-46-.58-12.52-11.33-18.81-19.94-26.08l-17.92-15.11,5.86,14.14c.73-31.83-1.1-63.88-3.81-95.58-5.51-64.38-15.55-129.78-38-190.63-12.82-34.71-29.53-67.92-54-95.93l5.15,8.82c-1.3-7.58-3.83-15.06-6.44-22.26A264.71,264.71,0,0,0,1434.57,491c-41.08-61.31-103.28-103.36-171.93-128.53-51.86-19-107.29-28.28-162.29-31.67A564.72,564.72,0,0,0,933.72,345C847,365.92,766,409.52,700.43,470a460.39,460.39,0,0,0-64.38,73c-11.92,16.92-23.53,35.58-29.4,55.61-3.74,12.76-7.1,25.71-10.44,38.58-2.61,10.12,3.33,22.18,14,24.61C620.62,664.16,632,658.65,634.79,647.82Z"/><path class="cls-4" d="M472.5,994.5c-1.23,13.88,3,30,18.31,34,11.37,2.94,21.57-3.06,29.61-10.46,6.91-6.36,10.84-14.63,15.38-22.71,6.22-11.06,12.75-22,18.69-33.21,2.47-4.67,3.44-9.78,4.72-14.86l6.06-23.9q4.93-19.46,9.86-38.91,24.3-95.86,48.64-191.72,5.76-22.59,11.54-45.19c2.6-10.12-3.31-22.17-14-24.6-10.41-2.37-21.81,3.13-24.6,14q-12.56,48.87-24.9,97.8Q559,785.39,546.12,836.11q-9.27,36.52-18.52,73-2.42,9.51-4.82,19l-2.62,10.33c-.12.49-1.14,5.69-1.46,5.74-1.38.24,2.19-3.89,1.43-2.66-2.21,3.56-4.13,7.34-6.19,11-6.73,12-14.28,23.76-20.31,36.1-1.53,3.14,5-5.53,1.8-2.28-1.67,1.71-3.65,3.26-5.24,5,3.91-4.31,3.69-2.56,2-1.57a15.94,15.94,0,0,0-1.87,1.12c-1.7,1.31,5.57-2,3-1.26q-2.89.71,3.83-.46-2.94-.06,3.95.54a15.7,15.7,0,0,1,8.51,5.66c1,1.28,3.18,7.72,2.34,3.57,1.29,6.35.38,3,.35,1.17a54.4,54.4,0,0,1,.29-5.7c.93-10.45-9.86-20.45-20-20-11.63.52-19,8.81-20,20Z"/><path class="cls-3" d="M1451,576c-60.6-121.21-233-247.8-487-116-64.51,33.48-171,80-207,168-21.59,52.76-69,396-69,396s-93-51-177-25"/><path class="cls-4" d="M1468.27,565.91A329.75,329.75,0,0,0,1394.75,470a334.29,334.29,0,0,0-121.08-70.16c-52.33-16.88-107.84-19.08-162-11a444.56,444.56,0,0,0-91,24.1c-29.67,11.17-57.77,25.32-86,39.62-45.66,23.14-91,47.19-130.21,80.56-32.47,27.66-60.28,63.16-71.73,104.8-8,29-13.2,58.74-18.55,88.26-7.18,39.61-13.65,79.36-19.89,119.13Q685.78,900,677.83,954.8q-4.44,30.48-8.71,61c-.14,1-.27,1.92-.41,2.88l29.38-11.95C685,999.57,670.85,994,656.82,989c-28.92-10.29-59.72-16.77-90.47-17.35a197.6,197.6,0,0,0-60.67,8.06c-10,3-17.35,14.14-14,24.61,3.27,10.09,13.89,17.22,24.61,14a182.49,182.49,0,0,1,24.57-5.51c2.38-.38-1.24.14-1.34.19a13.14,13.14,0,0,1,3.17-.36c2.11-.22,4.23-.4,6.34-.54q5.91-.41,11.82-.45a219.12,219.12,0,0,1,23.89,1.16c1.75.17,3.5.4,5.25.59,2.89.31-3.73-.56-.87-.12l2.21.32q5.77.87,11.51,2a301.46,301.46,0,0,1,39.5,10.67q7.71,2.63,15.27,5.65,1.56.61,3.12,1.26l1.7.71c2.21.89-4.46-1.93-2.33-1,1.83.81,3.67,1.59,5.49,2.42,4.15,1.87,8.29,3.8,12.29,6,10,5.48,27.53,1.42,29.38-12,1.9-13.82,3.88-27.63,5.86-41.44q7.15-49.78,14.75-99.5c6.06-39.56,12.33-79.09,19.1-118.54,5.74-33.41,11.62-66.86,19.11-99.93,2.38-10.51,4.82-21.09,8.24-31.32.56-1.66,1.29-3.29,1.81-5,.2-.64-1.64,3.7-.29.69.65-1.45,1.3-2.9,2-4.34q2.17-4.62,4.61-9.09a186.55,186.55,0,0,1,9.91-16.14q2.48-3.63,5.12-7.14c2.73-3.65-1.63,2,.59-.77,1.14-1.4,2.27-2.81,3.43-4.2a257.71,257.71,0,0,1,26.66-27.23c4.79-4.25,9.74-8.31,14.75-12.3,2.94-2.36-2.72,2,.29-.24,1.28-1,2.56-1.93,3.84-2.88q4.14-3.08,8.35-6c20.46-14.38,42.14-26.94,64.2-38.68,20.35-10.84,41-21.25,61.56-31.61q12.06-6.07,24.4-11.6,3-1.35,6-2.65c.87-.38,6.28-2.63,2.91-1.26,3.95-1.61,7.88-3.22,11.85-4.76,15.09-5.86,30.46-11,46.06-15.35a421.83,421.83,0,0,1,43.87-9.72c3.53-.59,7.08-1.21,10.63-1.61-3.52.39-1.41.2.69-.06s4-.46,6-.67q10.21-1.07,20.49-1.56a340.89,340.89,0,0,1,39.28.37c6.27.42,12.52,1.07,18.76,1.82,3.61.44-4.17-.63.59.09l4.55.7q4.5.72,9,1.58a308.46,308.46,0,0,1,35.06,8.84q8.22,2.6,16.3,5.66c2.46.93,4.92,1.9,7.36,2.9.73.3,1.48.67,2.24.93.14,0-4-1.74-2-.84,1.46.66,2.94,1.28,4.4,1.94a309.54,309.54,0,0,1,56.27,32.85c1.06.78,2.12,1.57,3.17,2.37l1.35,1c1.75,1.27-2-1.55-1.81-1.41,2.14,1.8,4.4,3.47,6.57,5.25q6,4.92,11.76,10.14,11.27,10.2,21.53,21.43,5,5.49,9.76,11.19c1.46,1.75,2.89,3.51,4.31,5.28l2.25,2.87c1.52,1.92-2.69-3.55-1.23-1.59l1.25,1.65q8.52,11.32,16,23.38,7,11.34,13,23.25c4.7,9.37,18.68,12.78,27.36,7.18,9.58-6.18,12.21-17.34,7.18-27.36Z"/><polygon class="cls-3" points="756 1043 773 935 940 944 950 967 946 1043 929 1052 756 1043"/><path class="cls-4" d="M775.29,1048.32l14.9-94.68,2.1-13.32L773,955l146.46,7.89L940,964l-17.27-9.91,10,23L930,967l-4,76,9.91-17.27-17,9L929,1032l-58.51-3-92.85-4.83L756,1023c-10.46-.54-20.47,9.59-20,20,.51,11.3,8.79,19.42,20,20l130.5,6.79,31.48,1.64c7.69.4,13.91,1.38,21.26-2.24,5.14-2.53,10.25-5.27,15.24-8.07,8-4.46,11.18-11.64,11.64-20.43l1.8-34.2c.67-12.61,1.64-25.25,2-37.87.18-6.43-2.84-12.16-5.35-18l-7.29-16.76c-2.82-6.49-10.8-9.56-17.27-9.91l-146.46-7.89L773,915c-7.9-.43-18,6.46-19.29,14.68l-14.9,94.68-2.1,13.32c-1.62,10.3,2.63,22,14,24.61C760.26,1064.47,773.55,1059.37,775.29,1048.32Z"/><path class="cls-3" d="M994,826c24-51,222-297,521-112"/><path class="cls-4" d="M1011.27,836.09A144.63,144.63,0,0,1,1023,816.47q2.16-3.13,4.4-6.21c.8-1.09,1.61-2.18,2.42-3.26l1.26-1.67c2-2.64-.71.95-1.45,1.87,3.87-4.82,7.7-9.66,11.73-14.34a406.84,406.84,0,0,1,30.41-31.6q8.92-8.32,18.31-16.14c3.27-2.71,6.59-5.37,9.93-8s-3.22,2.45-.74.58l2.23-1.69c1.88-1.42,3.78-2.82,5.68-4.21a387.54,387.54,0,0,1,46.95-29.27c8.64-4.54,17.46-8.66,26.4-12.56,2.28-1-4.15,1.71-1.84.78l1.48-.61,3.47-1.4c2.33-.93,4.68-1.83,7-2.71q7.14-2.65,14.4-5,14.88-4.78,30.17-8.15,8.13-1.78,16.33-3.15c2.49-.42,5-.79,7.48-1.16,4.57-.67-3.58.42-.09,0l4.68-.56a329.06,329.06,0,0,1,69.24-.24c2.83.29,5.64.67,8.47,1,2.25.24-2.08-.31-2-.29a12.09,12.09,0,0,0,2.63.37q2.65.39,5.29.81,9.43,1.5,18.78,3.51a387,387,0,0,1,38.73,10.47q10.05,3.27,19.94,7.06,4.71,1.8,9.38,3.71l2.91,1.2c2.11.87-1-.41-1.14-.48,2,.76,3.91,1.69,5.85,2.55,14.26,6.32,28.19,13.35,41.8,21,7.24,4.05,14.37,8.28,21.44,12.63,8.91,5.5,22.4,2.22,27.36-7.18,5.16-9.77,2.34-21.49-7.18-27.36C1473.83,665.12,1417,640.4,1357.19,631c-48.8-7.7-98.43-6.05-146.28,6.66C1171.08,648.2,1133,666,1098.78,689a434.07,434.07,0,0,0-78.5,67.43c-15.4,16.89-30.63,35.22-41.51,55.44-.71,1.32-1.4,2.66-2,4-4.47,9.43-2.94,22,7.18,27.36,8.89,4.7,22.58,2.92,27.36-7.18Z"/></g></g></svg>